<svg xmlns="http://www.w3.org/2000/svg" xmlns:svgjs="http://svgjs.com/svgjs" xmlns:xlink="http://www.w3.org/1999/xlink" width="288" height="288"><svg xmlns="http://www.w3.org/2000/svg" width="288" height="288" enable-background="new 0 0 512 96" viewBox="0 0 512 96"><rect width="96" height="96" fill="#cb1d31" class="color00b67a svgShape"/><rect width="96" height="96" x="104" fill="#cb1d31" class="color00b67a svgShape"/><rect width="96" height="96" x="208" fill="#cb1d31" class="color00b67a svgShape"/><rect width="96" height="96" x="312" fill="#cb1d31" class="color00b67a svgShape"/><g class="color000 svgShape" transform="translate(416)"><rect width="48" height="96" x="48" fill="#dcdce6" class="colordcdce6 svgShape"/><rect width="48" height="96" fill="#cb1d31" class="color00b67a svgShape"/></g><path fill="#fff" d="M48 64.7L62.6 61l6.1 18.8L48 64.7zM81.6 40.4H55.9L48 16.2l-7.9 24.2H14.4l20.8 15-7.9 24.2 20.8-15 12.8-9.2L81.6 40.4 81.6 40.4 81.6 40.4 81.6 40.4zM152 64.7l14.6-3.7 6.1 18.8L152 64.7zM185.6 40.4h-25.7L152 16.2l-7.9 24.2h-25.7l20.8 15-7.9 24.2 20.8-15 12.8-9.2L185.6 40.4 185.6 40.4 185.6 40.4 185.6 40.4zM256 64.7l14.6-3.7 6.1 18.8L256 64.7zM289.6 40.4h-25.7L256 16.2l-7.9 24.2h-25.7l20.8 15-7.9 24.2 20.8-15 12.8-9.2L289.6 40.4 289.6 40.4 289.6 40.4 289.6 40.4zM360 64.7l14.6-3.7 6.1 18.8L360 64.7zM393.6 40.4h-25.7L360 16.2l-7.9 24.2h-25.7l20.8 15-7.9 24.2 20.8-15 12.8-9.2L393.6 40.4 393.6 40.4 393.6 40.4 393.6 40.4zM464 64.7l14.6-3.7 6.1 18.8L464 64.7zM497.6 40.4h-25.7L464 16.2l-7.9 24.2h-25.7l20.8 15-7.9 24.2 20.8-15 12.8-9.2L497.6 40.4 497.6 40.4 497.6 40.4 497.6 40.4z" class="colorfff svgShape"/></svg></svg>